<svg xmlns="http://www.w3.org/2000/svg" viewBox="0 0 1000 500">
  <!-- Simplified world continents -->
  <rect width="1000" height="500" fill="#1e293b"/>
  
  <!-- North America -->
  <path d="M 80,180 L 200,160 L 220,180 L 230,220 L 200,280 L 180,300 L 160,310 L 120,300 L 100,280 L 90,240 L 85,200 Z" 
        fill="#22c55e" opacity="0.6" stroke="#10b981" stroke-width="2"/>
  
  <!-- South America -->
  <path d="M 200,350 L 230,340 L 250,360 L 260,400 L 255,450 L 240,480 L 220,485 L 200,480 L 190,450 L 185,400 L 195,360 Z" 
        fill="#22c55e" opacity="0.6" stroke="#10b981" stroke-width="2"/>
  
  <!-- Europe -->
  <path d="M 450,150 L 500,140 L 520,160 L 515,180 L 500,190 L 470,185 L 450,170 Z" 
        fill="#22c55e" opacity="0.6" stroke="#10b981" stroke-width="2"/>
  
  <!-- Africa -->
  <path d="M 480,220 L 520,215 L 540,240 L 545,280 L 540,320 L 520,350 L 500,355 L 480,350 L 470,320 L 475,280 L 480,240 Z" 
        fill="#22c55e" opacity="0.6" stroke="#10b981" stroke-width="2"/>
  
  <!-- Asia -->
  <path d="M 550,120 L 650,110 L 750,120 L 780,140 L 800,170 L 790,200 L 770,220 L 740,230 L 700,225 L 650,220 L 600,210 L 570,190 L 550,160 Z" 
        fill="#22c55e" opacity="0.6" stroke="#10b981" stroke-width="2"/>
  
  <!-- Australia -->
  <path d="M 720,350 L 780,345 L 800,360 L 795,380 L 775,385 L 740,380 L 720,365 Z" 
        fill="#22c55e" opacity="0.6" stroke="#10b981" stroke-width="2"/>
</svg>